<?xml version="1.0" encoding="utf-8"?>
<!-- Generator: Adobe Illustrator 16.0.0, SVG Export Plug-In . SVG Version: 6.00 Build 0)  -->
<!DOCTYPE svg PUBLIC "-//W3C//DTD SVG 1.1//EN" "http://www.w3.org/Graphics/SVG/1.1/DTD/svg11.dtd">
<svg version="1.1" id="Capa_1" xmlns="http://www.w3.org/2000/svg" xmlns:xlink="http://www.w3.org/1999/xlink" x="0px" y="0px"
	 width="475.3px" height="477.8px" viewBox="0 0 475.3 477.8" style="enable-background:new 0 0 475.3 477.8;" xml:space="preserve"
	>
<g>
	<g>
		<g>
			<path style="fill:#191919;" d="M244.5,0L84.8,48.5L0,217.6l39.1,146.5l204.4,113.7l206.6-128.7l25.3-127.5L412.6,48.5L244.5,0z"
				/>
		</g>
		<g>
			<g>
				<path style="fill:#212121;" d="M243.5,477.8l206.6-128.7l25.3-127.5L412.6,48.5L244.5,0L243.5,477.8z"/>
			</g>
		</g>
	</g>
	<polygon style="fill:#191919;" points="246.8,474.2 242.5,474.9 243.5,477.8 400.6,426.5 450.1,349.1 	"/>
	<polyline style="fill:#141414;" points="243.5,477.8 243.5,474.8 39.1,364.1 93.1,425.8 243.5,477.8 	"/>
	<g>
		<g>
			<g>
				<path style="fill:#141414;" d="M257,290.5c-3-19.8-5.4-41-7.2-63.8c-3.5,11.7-7,25.3-10.3,40.8c-3.4,15.5-5.8,31.4-7.5,47.7
					c-0.6,0.6-1.4,1-2.4,1.3c-1,0.3-2.4,0.4-4,0.5c-4.4,0-8.9-0.6-13.4-1.8c-4.5-1.2-6.9-2.6-7.3-4.2c-5.8-20.7-11-40-15.8-57.8
					c-4.8-17.8-9.1-34-13-48.6c-1.1,8.3-2.1,17.5-2.9,27.5s-1.1,20.4-0.9,31.1c0.2,10.6,1.2,20.9,3.1,31.2
					c1.9,10.2,8.9,16.6,13.2,25.4c-0.3,0.1-1.6,3.2-4.9,3.3c-0.4,0-0.8,0-1.2,0.1l-6.4,0.1c-5.6,0.2-12.2-0.2-19.7-1.1
					c-7.6-1-14.2-3.2-20-6.7s-9-8.9-9.4-16.2c-0.1-4.5,0-8.1,0.3-10.7c0.4-2.7,1.1-6.1,2.3-10.2c1.2-4.1,3.1-10.4,5.6-19.1
					c2.5-8.6,5.9-21.1,10.2-37.5c4.2-16.3,10.2-39.8,16-65.4c-7.1-10.9,1.7-28.9,14.7-29.9c5.9-0.5,11.4,1.5,14.4,4.8
					c2.9,3.3,5,8.2,6.4,14.6c1.3,6.5,2.9,14.4,4.7,23.8c2.9,13.2,5.3,23.8,7.3,31.9c2,8.1,3.6,14.3,4.7,18.6
					c0.6,2.6,1.2,4.8,1.8,6.6c0.6,1.8,1,3.2,1.4,4.3c1.7-1.5,3.3-3.5,4.9-6s3.2-5.4,4.8-8.8c2.8-5.7,5.7-13.8,8.7-24.1
					s9.7-23.5,8.7-40.2c-0.2-2.6-3.6-16.1,3.3-20.1c2.9-1.7,5.2-1.7,8.6-1.7c4.5,0,9,0.6,13.8,1.9c4.7,1.3,8.8,3,12.2,5
					c3.5,2.1,5.5,4.2,6.1,6.3c0.3,17,0.6,31.1,0.7,42.1c0.2,11,0.3,20.7,0.5,28.9c0.3,22.2,1.5,41.7,3.5,58.6
					c2,16.9,5.8,30.5,11.5,40.9c0.3,0.5,0.5,1.1,0.5,1.7c0.7,1.3,1.5,2.6,2.3,3.8c3.3,5.3,7.1,9.1,11.2,11.4
					c4.1,2.3,8.7,2.5,13.7,0.6c0.5-0.2,1.1-0.5,1.7-0.8c0.6-0.3,1.2-0.6,1.8-1c7.4-6.8,14.1-13.9,20.3-21.2
					c6.1-7.4,12.2-14.2,18.4-20.4c6.2-6.2,13-10.9,20.6-14.2c8.4-3.3,15.2-4.2,20.4-2.6c5.2,1.6,8.8,4.9,10.9,9.9
					c1.6,3.8,2.1,8.3,1.6,13.3c-0.5,5.1-1.6,10.4-4.9,16.1c-9.7-2.6-18.3-2.9-25.7-2.3c-7.4,0.5-14,2-19.6,4.4
					c-7.3,3.1-13.6,7.2-18.8,12.1c-5.3,5-10.1,10.2-14.4,15.6c-4.3,5.5-6.9,10.4-13.1,15.1c-11.9,9.2-22.2,12.1-37.2,10.2
					C261.2,361,260,310.2,257,290.5z"/>
			</g>
		</g>
	</g>
	<g>
		<g>
			<g>
				<path style="fill:#191919;" d="M226.3,216.2c2.8-5.7,5.7-13.8,8.7-24.1c3-10.3,9.7-23.5,8.7-40.2c-0.2-2.6-3.6-16.1,3.3-20.1
					c2.9-1.7,5.2-1.7,8.6-1.7c4.5,0,9,0.6,13.8,1.9c4.7,1.3,8.8,3,12.2,5c3.5,2.1,5.5,4.2,6.1,6.3c0.3,17,0.6,31.1,0.7,42.1
					c0.2,11,0.3,20.7,0.5,28.9c0.3,22.2,1.5,41.7,3.5,58.6c2,16.9,5.8,30.5,11.5,40.9c0.3,0.5,0.5,1.1,0.5,1.6
					c0.7,1.3,1.5,2.6,2.3,3.8c3.3,5.3,7.1,9.1,11.2,11.4c4.1,2.3,8.7,2.5,13.7,0.6c0.5-0.2,1.1-0.5,1.7-0.8c0.6-0.3,1.2-0.6,1.8-1
					c7.4-6.8,14.1-13.9,20.3-21.2c6.1-7.4,12.2-14.2,18.4-20.4c6.2-6.2,13-10.9,20.6-14.2c8.4-3.3,15.2-4.2,20.4-2.6
					c5.2,1.6,8.8,4.9,10.9,9.9c1.6,3.8,2.1,8.3,1.6,13.3c-0.5,5.1-1.6,10.4-4.9,16.1c-9.7-2.6-18.3-2.9-25.7-2.3
					c-7.4,0.5-14,2-19.6,4.4c-7.3,3.1-13.6,7.2-18.8,12.1c-5.3,5-10.1,10.2-14.4,15.6c-4.3,5.5-6.9,10.4-13.1,15.1
					c-11.9,9.2-22.2,12.1-37.2,10.2c-32.1-4.2-33.3-55-36.3-74.8c-3-19.8-5.4-41-7.2-63.8c-2.1,6.8-4.1,14.3-6.1,22.4
					C240.8,219,224.7,219.5,226.3,216.2z"/>
			</g>
		</g>
	</g>
	<g>
		<g>
			<g>
				<path style="fill:#FFFFFF;" d="M257,281.8c-3-19.8-5.4-41-7.2-63.8c-3.5,11.7-7,25.3-10.3,40.8c-3.4,15.5-5.8,31.4-7.5,47.7
					c-0.6,0.6-1.4,1-2.4,1.3c-1,0.3-2.4,0.4-4,0.5c-4.4,0-8.9-0.6-13.4-1.8c-4.5-1.2-6.9-2.6-7.3-4.2c-5.8-20.7-11-40-15.8-57.8
					c-4.8-17.8-9.1-34-13-48.6c-1.1,8.3-2.1,17.5-2.9,27.5s-1.1,20.4-0.9,31.1c0.2,10.6,1.2,20.9,3.1,31.2c1.9,10.2,5,19.7,9.3,28.5
					c-0.3,0.1-0.7,0.2-1,0.2c-0.4,0-0.8,0-1.2,0.1l-6.4,0.1c-5.6,0.2-12.2-0.2-19.7-1.1c-7.6-1-14.2-3.2-20-6.7s-9-8.9-9.4-16.2
					c-0.1-4.5,0-8.1,0.3-10.7c0.4-2.7,1.1-6.1,2.3-10.2c1.2-4.1,3.1-10.4,5.6-19.1c2.5-8.6,5.9-21.1,10.2-37.5
					c4.2-16.3,10.2-39.8,16-65.4c-7.1-10.9,1.7-28.9,14.7-29.9c5.9-0.5,11.4,1.5,14.4,4.8c2.9,3.3,5,8.2,6.4,14.6
					c1.3,6.5,2.9,14.4,4.7,23.8c2.9,13.2,5.3,23.8,7.3,31.9c2,8.1,3.6,14.3,4.7,18.6c0.6,2.6,1.2,4.8,1.8,6.6c0.6,1.8,1,3.2,1.4,4.3
					c1.7-1.5,3.3-3.5,4.9-6s3.2-5.4,4.8-8.8c2.8-5.7,5.7-13.8,8.7-24.1s9.7-23.5,8.7-40.2c-0.2-2.6-3.6-16.1,3.3-20.1
					c2.9-1.7,5.2-1.7,8.6-1.7c4.5,0,9,0.6,13.8,1.9c4.7,1.3,8.8,3,12.2,5c3.5,2.1,5.5,4.2,6.1,6.3c0.3,17,0.6,31.1,0.7,42.1
					c0.2,11,0.3,20.7,0.5,28.9c0.3,22.2,1.5,41.7,3.5,58.6c2,16.9,5.8,30.5,11.5,40.9c0.3,0.5,0.5,1.1,0.5,1.6
					c0.7,1.3,1.5,2.6,2.3,3.8c3.3,5.3,7.1,9.1,11.2,11.4c4.1,2.3,8.7,2.5,13.7,0.6c0.5-0.2,1.1-0.5,1.7-0.8c0.6-0.3,1.2-0.6,1.8-1
					c7.4-6.8,14.1-13.9,20.3-21.2c6.1-7.4,12.2-14.2,18.4-20.4c6.2-6.2,13-10.9,20.6-14.2c8.4-3.3,15.2-4.2,20.4-2.6
					c5.2,1.6,8.8,4.9,10.9,9.9c1.6,3.8,2.1,8.3,1.6,13.3c-0.5,5.1-1.6,10.4-4.9,16.1c-9.7-2.6-18.3-2.9-25.7-2.3
					c-7.4,0.5-14,2-19.6,4.4c-7.3,3.1-13.6,7.2-18.8,12.1c-5.3,5-10.1,10.2-14.4,15.6c-4.3,5.5-6.9,10.4-13.1,15.1
					c-11.9,9.2-22.2,12.1-37.2,10.2C261.2,352.4,260,301.5,257,281.8z"/>
			</g>
		</g>
	</g>
	<g>
		<g>
			<g>
				<path style="fill:#D3E1E4;" d="M226.4,308.2c-0.2-0.3-6.6-18.1-6.6-18.1l0.7-36.8l1.4-20.9l4.4-24.9c2.8-5.7,5.7-13.8,8.7-24.1
					s9.7-23.5,8.7-40.2c-0.2-2.6-3.6-16.1,3.3-20.1c2.9-1.7,5.2-1.7,8.6-1.7c4.5,0,9,0.6,13.8,1.9c4.7,1.3,8.8,3,12.2,5
					c3.5,2.1,5.5,4.2,6.1,6.3c0.3,17,0.6,31.1,0.7,42.1c0.2,11,0.3,20.7,0.5,28.9c0.3,22.2,1.5,41.7,3.5,58.6s5.8,30.5,11.5,40.9
					c0.3,0.5,0.5,1.1,0.5,1.6c0.7,1.3,1.5,2.6,2.3,3.8c3.3,5.3,7.1,9.1,11.2,11.4c4.1,2.3,8.7,2.5,13.7,0.6c0.5-0.2,1.1-0.5,1.7-0.8
					c0.6-0.3,1.2-0.6,1.8-1c7.4-6.8,14.1-13.9,20.3-21.2c6.1-7.4,12.2-14.2,18.4-20.4c6.2-6.2,13-10.9,20.6-14.2
					c8.4-3.3,15.2-4.2,20.4-2.6c5.2,1.6,8.8,4.9,10.9,9.9c1.6,3.8,2.1,8.3,1.6,13.3c-0.5,5.1-1.6,10.4-4.9,16.1
					c-9.7-2.6-18.3-2.9-25.7-2.3c-7.4,0.5-14,2-19.6,4.4c-7.3,3.1-13.6,7.2-18.8,12.1c-5.3,5-10.1,10.2-14.4,15.6
					c-4.3,5.5-6.9,10.4-13.1,15.1c-11.9,9.2-22.2,12.1-37.2,10.2c-32.1-4.2-33.3-55-36.3-74.8s-5.4-41-7.2-63.8
					c-3.5,11.7-7,25.3-10.3,40.8c-3.4,15.5-5.8,31.4-7.5,47.7C231,307.7,228.1,308.2,226.4,308.2z"/>
			</g>
		</g>
	</g>
</g>
</svg>
