<?xml version="1.0" encoding="utf-8"?>
<!-- Generated by IcoMoon.io -->
<!DOCTYPE svg PUBLIC "-//W3C//DTD SVG 1.1//EN" "http://www.w3.org/Graphics/SVG/1.1/DTD/svg11.dtd">
<svg version="1.1" xmlns="http://www.w3.org/2000/svg" xmlns:xlink="http://www.w3.org/1999/xlink" width="20" height="20" viewBox="0 0 20 20">
<path fill="#000000" d="M17.040 8.9h-14.080c-0.607 0-0.66 0.492-0.66 1.1s0.053 1.1 0.66 1.1h14.080c0.607 0 0.66-0.492 0.66-1.1s-0.053-1.1-0.66-1.1zM17.040 13.3h-14.080c-0.607 0-0.66 0.492-0.66 1.1s0.053 1.1 0.66 1.1h14.080c0.607 0 0.66-0.492 0.66-1.1s-0.053-1.1-0.66-1.1zM2.96 6.7h14.080c0.607 0 0.66-0.492 0.66-1.1s-0.053-1.1-0.66-1.1h-14.080c-0.607 0-0.66 0.492-0.66 1.1s0.053 1.1 0.66 1.1z"></path>
</svg>
